G04*
G04 #@! TF.GenerationSoftware,Altium Limited,Altium Designer,21.3.2 (30)*
G04*
G04 Layer_Color=16711935*
%FSLAX25Y25*%
%MOIN*%
G70*
G04*
G04 #@! TF.SameCoordinates,2B475E60-5533-4C64-9BAB-B6E77246D606*
G04*
G04*
G04 #@! TF.FilePolarity,Positive*
G04*
G01*
G75*
%ADD62C,0.00394*%
D62*
X82732Y413236D02*
X82469Y414221D01*
X81748Y414941D01*
X80764Y415205D01*
X79779Y414941D01*
X79059Y414221D01*
X78795Y413236D01*
X79059Y412252D01*
X79779Y411531D01*
X80764Y411268D01*
X81748Y411531D01*
X82469Y412252D01*
X82732Y413236D01*
X55866Y399079D02*
Y408921D01*
X64134Y399079D02*
Y408921D01*
X55866Y399079D02*
X64134D01*
X55866Y408921D02*
X64134D01*
X56555Y391130D02*
X63445D01*
X56555Y394870D02*
X63445D01*
Y391130D02*
Y394870D01*
X56555Y391130D02*
Y394870D01*
X193717Y398811D02*
Y425189D01*
X208283Y398811D02*
Y425189D01*
X193717D02*
X208283D01*
X193717Y398811D02*
X208283D01*
X54862Y371825D02*
Y374975D01*
X50138Y371825D02*
X54862D01*
X50138Y374975D02*
X54862D01*
X50138Y371825D02*
Y374975D01*
X125038Y371825D02*
Y374975D01*
X129762D01*
X125038Y371825D02*
X129762D01*
Y374975D01*
X200138Y371825D02*
Y374975D01*
X204862D01*
X200138Y371825D02*
X204862D01*
Y374975D01*
X274738Y371825D02*
Y374975D01*
X279462D01*
X274738Y371825D02*
X279462D01*
Y374975D01*
X50138Y298425D02*
Y301575D01*
X54862D01*
X50138Y298425D02*
X54862D01*
Y301575D01*
X125038Y298425D02*
Y301575D01*
X129762D01*
X125038Y298425D02*
X129762D01*
Y301575D01*
X200138Y298425D02*
Y301575D01*
X204862D01*
X200138Y298425D02*
X204862D01*
Y301575D01*
X274738Y259625D02*
Y262775D01*
X279462D01*
X274738Y259625D02*
X279462D01*
Y262775D01*
X54862Y223725D02*
Y226875D01*
X50138Y223725D02*
X54862D01*
X50138Y226875D02*
X54862D01*
X50138Y223725D02*
Y226875D01*
X129762Y223725D02*
Y226875D01*
X125038Y223725D02*
X129762D01*
X125038Y226875D02*
X129762D01*
X125038Y223725D02*
Y226875D01*
X200138Y223725D02*
Y226875D01*
X204862D01*
X200138Y223725D02*
X204862D01*
Y226875D01*
X279462Y110425D02*
Y113575D01*
X274738Y110425D02*
X279462D01*
X274738Y113575D02*
X279462D01*
X274738Y110425D02*
Y113575D01*
X54862Y147925D02*
Y151075D01*
X50138Y147925D02*
X54862D01*
X50138Y151075D02*
X54862D01*
X50138Y147925D02*
Y151075D01*
X129762Y147925D02*
Y151075D01*
X125038Y147925D02*
X129762D01*
X125038Y151075D02*
X129762D01*
X125038Y147925D02*
Y151075D01*
X204862Y147925D02*
Y151075D01*
X200138Y147925D02*
X204862D01*
X200138Y151075D02*
X204862D01*
X200138Y147925D02*
Y151075D01*
X113425Y39262D02*
X116575D01*
Y34538D02*
Y39262D01*
X113425Y34538D02*
Y39262D01*
Y34538D02*
X116575D01*
X147925Y39262D02*
X151075D01*
Y34538D02*
Y39262D01*
X147925Y34538D02*
Y39262D01*
Y34538D02*
X151075D01*
X123445Y437830D02*
Y441570D01*
X116555Y437830D02*
Y441570D01*
Y437830D02*
X123445D01*
X116555Y441570D02*
X123445D01*
X77220Y389220D02*
Y416780D01*
X104780Y389220D02*
Y416780D01*
X77220D02*
X104780D01*
X77220Y389220D02*
X104780D01*
X182555Y393130D02*
Y396870D01*
X189445Y393130D02*
Y396870D01*
X182555D02*
X189445D01*
X182555Y393130D02*
X189445D01*
X62270Y380055D02*
Y386945D01*
X58530Y380055D02*
Y386945D01*
X62270D01*
X58530Y380055D02*
X62270D01*
X68555Y420130D02*
Y423870D01*
X75445Y420130D02*
Y423870D01*
X68555D02*
X75445D01*
X68555Y420130D02*
X75445D01*
X56555Y416870D02*
X63445D01*
X56555Y413130D02*
X63445D01*
X56555D02*
Y416870D01*
X63445Y413130D02*
Y416870D01*
X116614Y434570D02*
X123504D01*
X116614Y430830D02*
X123504D01*
X116614D02*
Y434570D01*
X123504Y430830D02*
Y434570D01*
X106630Y419055D02*
Y425945D01*
X110370Y419055D02*
Y425945D01*
X106630Y419055D02*
X110370D01*
X106630Y425945D02*
X110370D01*
X105130Y378555D02*
X108870D01*
X105130Y385445D02*
X108870D01*
X105130Y378555D02*
Y385445D01*
X108870Y378555D02*
Y385445D01*
X181370Y415055D02*
Y421945D01*
X177630Y415055D02*
Y421945D01*
X181370D01*
X177630Y415055D02*
X181370D01*
X44742Y7242D02*
Y68660D01*
Y7242D02*
X106159D01*
Y68660D01*
X44742D02*
X106159D01*
X7242Y82242D02*
Y143659D01*
Y82242D02*
X68659D01*
Y143659D01*
X7242D02*
X68659D01*
X7242Y157242D02*
Y218659D01*
Y157242D02*
X68659D01*
Y218659D01*
X7242D02*
X68659D01*
X7242Y232242D02*
Y293659D01*
Y232242D02*
X68659D01*
Y293659D01*
X7242D02*
X68659D01*
X7242Y307242D02*
Y368659D01*
Y307242D02*
X68659D01*
Y368659D01*
X7242D02*
X68659D01*
X82242Y307242D02*
Y368659D01*
Y307242D02*
X143659D01*
Y368659D01*
X82242D02*
X143659D01*
X157242Y307242D02*
Y368659D01*
Y307242D02*
X218659D01*
Y368659D01*
X157242D02*
X218659D01*
X232242Y307242D02*
Y368659D01*
Y307242D02*
X293659D01*
Y368659D01*
X232242D02*
X293659D01*
X232242Y194742D02*
Y256159D01*
Y194742D02*
X293659D01*
Y256159D01*
X232242D02*
X293659D01*
X157242Y232242D02*
Y293659D01*
Y232242D02*
X218659D01*
Y293659D01*
X157242D02*
X218659D01*
X82242Y232242D02*
Y293659D01*
Y232242D02*
X143659D01*
Y293659D01*
X82242D02*
X143659D01*
X232242Y44742D02*
Y106159D01*
Y44742D02*
X293659D01*
Y106159D01*
X232242D02*
X293659D01*
X157242Y157242D02*
Y218659D01*
Y157242D02*
X218659D01*
Y218659D01*
X157242D02*
X218659D01*
X82242Y157242D02*
Y218659D01*
Y157242D02*
X143659D01*
Y218659D01*
X82242D02*
X143659D01*
X157242Y82242D02*
Y143659D01*
Y82242D02*
X218659D01*
Y143659D01*
X157242D02*
X218659D01*
X82242Y82242D02*
Y143659D01*
Y82242D02*
X143659D01*
Y143659D01*
X82242D02*
X143659D01*
X157242Y7242D02*
Y68660D01*
Y7242D02*
X218659D01*
Y68660D01*
X157242D02*
X218659D01*
M02*
