G04*
G04 #@! TF.GenerationSoftware,Altium Limited,Altium Designer,21.3.2 (30)*
G04*
G04 Layer_Color=255*
%FSLAX25Y25*%
%MOIN*%
G70*
G04*
G04 #@! TF.SameCoordinates,2B475E60-5533-4C64-9BAB-B6E77246D606*
G04*
G04*
G04 #@! TF.FilePolarity,Positive*
G04*
G01*
G75*
%ADD54C,0.07874*%
%ADD55R,0.05906X0.05906*%
%ADD56C,0.05906*%
%ADD57C,0.03543*%
%ADD58R,0.07874X0.07874*%
D54*
X47951Y357951D02*
D03*
X122951D02*
D03*
X197951D02*
D03*
X272951D02*
D03*
X47951Y282951D02*
D03*
X122951D02*
D03*
X197951D02*
D03*
X272951Y245451D02*
D03*
X47951Y207951D02*
D03*
X122951D02*
D03*
X197951D02*
D03*
X272951Y95451D02*
D03*
X47951Y132951D02*
D03*
X122951D02*
D03*
X197951D02*
D03*
X85451Y57951D02*
D03*
X197951D02*
D03*
D55*
X198169Y433626D02*
D03*
X20500Y434000D02*
D03*
X82500D02*
D03*
D56*
X208169Y433626D02*
D03*
X10500Y434000D02*
D03*
X72500D02*
D03*
X62500D02*
D03*
X52500D02*
D03*
X42500D02*
D03*
X32500D02*
D03*
D57*
X141839Y419768D02*
D03*
X159161D02*
D03*
D58*
X60451Y47951D02*
D03*
X22951Y122951D02*
D03*
Y197951D02*
D03*
Y272951D02*
D03*
Y347951D02*
D03*
X97951D02*
D03*
X172951D02*
D03*
X247951D02*
D03*
Y235451D02*
D03*
X172951Y272951D02*
D03*
X97951D02*
D03*
X247951Y85451D02*
D03*
X172951Y197951D02*
D03*
X97951D02*
D03*
X172951Y122951D02*
D03*
X97951D02*
D03*
X172951Y47951D02*
D03*
M02*
