G04*
G04 #@! TF.GenerationSoftware,Altium Limited,Altium Designer,21.3.2 (30)*
G04*
G04 Layer_Color=32768*
%FSLAX25Y25*%
%MOIN*%
G70*
G04*
G04 #@! TF.SameCoordinates,2B475E60-5533-4C64-9BAB-B6E77246D606*
G04*
G04*
G04 #@! TF.FilePolarity,Positive*
G04*
G01*
G75*
%ADD13C,0.00787*%
%ADD62C,0.00394*%
%ADD63C,0.00197*%
D13*
X174500Y402300D02*
Y445300D01*
X126500Y402300D02*
X174500D01*
X126500D02*
Y445300D01*
X174500D01*
X150500Y421800D02*
Y426800D01*
X148000Y424300D02*
X153000D01*
X21000Y398500D02*
X26000D01*
X23500Y396000D02*
Y401000D01*
X9500Y374000D02*
X37500D01*
Y423000D01*
X9500D02*
X37500D01*
X9500Y374000D02*
Y423000D01*
D62*
X58031Y404000D02*
X61968D01*
X60000Y402032D02*
Y405969D01*
Y391130D02*
Y394870D01*
X58130Y393000D02*
X61870D01*
X199031Y412000D02*
X202969D01*
X201000Y410032D02*
Y413969D01*
X52500Y372416D02*
Y374384D01*
X51516Y373400D02*
X53484D01*
X126416D02*
X128384D01*
X127400Y372416D02*
Y374384D01*
X201516Y373400D02*
X203484D01*
X202500Y372416D02*
Y374384D01*
X276116Y373400D02*
X278084D01*
X277100Y372416D02*
Y374384D01*
X51516Y300000D02*
X53484D01*
X52500Y299016D02*
Y300984D01*
X126416Y300000D02*
X128384D01*
X127400Y299016D02*
Y300984D01*
X201516Y300000D02*
X203484D01*
X202500Y299016D02*
Y300984D01*
X276116Y261200D02*
X278084D01*
X277100Y260216D02*
Y262184D01*
X52500Y224316D02*
Y226284D01*
X51516Y225300D02*
X53484D01*
X127400Y224316D02*
Y226284D01*
X126416Y225300D02*
X128384D01*
X201516D02*
X203484D01*
X202500Y224316D02*
Y226284D01*
X277100Y111016D02*
Y112984D01*
X276116Y112000D02*
X278084D01*
X52500Y148516D02*
Y150484D01*
X51516Y149500D02*
X53484D01*
X127400Y148516D02*
Y150484D01*
X126416Y149500D02*
X128384D01*
X202500Y148516D02*
Y150484D01*
X201516Y149500D02*
X203484D01*
X115000Y35916D02*
Y37884D01*
X114016Y36900D02*
X115984D01*
X148516D02*
X150484D01*
X149500Y35916D02*
Y37884D01*
X118130Y439700D02*
X121870D01*
X120000Y437830D02*
Y441570D01*
X89031Y403000D02*
X92968D01*
X91000Y401031D02*
Y404969D01*
X184130Y395000D02*
X187870D01*
X186000Y393130D02*
Y396870D01*
X58530Y383500D02*
X62270D01*
X60400Y381630D02*
Y385370D01*
X70130Y422000D02*
X73870D01*
X72000Y420130D02*
Y423870D01*
X60000Y413130D02*
Y416870D01*
X58130Y415000D02*
X61870D01*
X120059Y430830D02*
Y434570D01*
X118189Y432700D02*
X121929D01*
X106630Y422500D02*
X110370D01*
X108500Y420630D02*
Y424370D01*
X107000Y380130D02*
Y383870D01*
X105130Y382000D02*
X108870D01*
X177630Y418500D02*
X181370D01*
X179500Y416630D02*
Y420370D01*
X73482Y37951D02*
X77419D01*
X75451Y35982D02*
Y39919D01*
X35982Y112951D02*
X39919D01*
X37951Y110982D02*
Y114919D01*
X35982Y187951D02*
X39919D01*
X37951Y185982D02*
Y189919D01*
X35982Y262951D02*
X39919D01*
X37951Y260982D02*
Y264919D01*
X35982Y337951D02*
X39919D01*
X37951Y335982D02*
Y339919D01*
X110982Y337951D02*
X114919D01*
X112951Y335982D02*
Y339919D01*
X185982Y337951D02*
X189919D01*
X187951Y335982D02*
Y339919D01*
X260982Y337951D02*
X264919D01*
X262951Y335982D02*
Y339919D01*
X260982Y225451D02*
X264919D01*
X262951Y223482D02*
Y227419D01*
X185982Y262951D02*
X189919D01*
X187951Y260982D02*
Y264919D01*
X110982Y262951D02*
X114919D01*
X112951Y260982D02*
Y264919D01*
X260982Y75451D02*
X264919D01*
X262951Y73482D02*
Y77419D01*
X185982Y187951D02*
X189919D01*
X187951Y185982D02*
Y189919D01*
X110982Y187951D02*
X114919D01*
X112951Y185982D02*
Y189919D01*
X185982Y112951D02*
X189919D01*
X187951Y110982D02*
Y114919D01*
X110982Y112951D02*
X114919D01*
X112951Y110982D02*
Y114919D01*
X185982Y37951D02*
X189919D01*
X187951Y35982D02*
Y39919D01*
D63*
X54094Y397307D02*
Y410693D01*
X65905Y397307D02*
Y410693D01*
X54094Y397307D02*
X65905D01*
X54094Y410693D02*
X65905D01*
X54685Y390047D02*
X65315D01*
X54685Y395953D02*
X65315D01*
Y390047D02*
Y395953D01*
X54685Y390047D02*
Y395953D01*
X183874Y397827D02*
Y426173D01*
X218126Y397827D02*
Y426173D01*
X183874D02*
X218126D01*
X183874Y397827D02*
X218126D01*
X46595Y371431D02*
Y375368D01*
X58406Y371431D02*
Y375368D01*
X46595D02*
X58406D01*
X46595Y371431D02*
X58406D01*
X121494D02*
X133306D01*
X121494Y375368D02*
X133306D01*
Y371431D02*
Y375368D01*
X121494Y371431D02*
Y375368D01*
X196595Y371431D02*
X208405D01*
X196595Y375368D02*
X208405D01*
Y371431D02*
Y375368D01*
X196595Y371431D02*
Y375368D01*
X271195Y371431D02*
X283005D01*
X271195Y375368D02*
X283005D01*
Y371431D02*
Y375368D01*
X271195Y371431D02*
Y375368D01*
X46595Y298031D02*
X58406D01*
X46595Y301969D02*
X58406D01*
Y298031D02*
Y301969D01*
X46595Y298031D02*
Y301969D01*
X121494Y298031D02*
X133306D01*
X121494Y301969D02*
X133306D01*
Y298031D02*
Y301969D01*
X121494Y298031D02*
Y301969D01*
X196595Y298031D02*
X208405D01*
X196595Y301969D02*
X208405D01*
Y298031D02*
Y301969D01*
X196595Y298031D02*
Y301969D01*
X271195Y259231D02*
X283005D01*
X271195Y263169D02*
X283005D01*
Y259231D02*
Y263169D01*
X271195Y259231D02*
Y263169D01*
X46595Y223331D02*
Y227269D01*
X58406Y223331D02*
Y227269D01*
X46595D02*
X58406D01*
X46595Y223331D02*
X58406D01*
X121494D02*
Y227269D01*
X133306Y223331D02*
Y227269D01*
X121494D02*
X133306D01*
X121494Y223331D02*
X133306D01*
X196595D02*
X208405D01*
X196595Y227269D02*
X208405D01*
Y223331D02*
Y227269D01*
X196595Y223331D02*
Y227269D01*
X271195Y110031D02*
Y113969D01*
X283005Y110031D02*
Y113969D01*
X271195D02*
X283005D01*
X271195Y110031D02*
X283005D01*
X46595Y147531D02*
Y151469D01*
X58406Y147531D02*
Y151469D01*
X46595D02*
X58406D01*
X46595Y147531D02*
X58406D01*
X121494D02*
Y151469D01*
X133306Y147531D02*
Y151469D01*
X121494D02*
X133306D01*
X121494Y147531D02*
X133306D01*
X196595D02*
Y151469D01*
X208405Y147531D02*
Y151469D01*
X196595D02*
X208405D01*
X196595Y147531D02*
X208405D01*
X113031Y30994D02*
Y42805D01*
X116969Y30994D02*
Y42805D01*
X113031Y30994D02*
X116969D01*
X113031Y42805D02*
X116969D01*
X147531Y30994D02*
X151469D01*
X147531Y42805D02*
X151469D01*
X147531Y30994D02*
Y42805D01*
X151469Y30994D02*
Y42805D01*
X125315Y436747D02*
Y442653D01*
X114685Y436747D02*
Y442653D01*
Y436747D02*
X125315D01*
X114685Y442653D02*
X125315D01*
X68756Y380756D02*
Y425244D01*
X113244Y380756D02*
Y425244D01*
X68756D02*
X113244D01*
X68756Y380756D02*
X113244D01*
X180685Y392047D02*
Y397953D01*
X191315Y392047D02*
Y397953D01*
X180685D02*
X191315D01*
X180685Y392047D02*
X191315D01*
X63353Y378185D02*
Y388815D01*
X57447Y378185D02*
Y388815D01*
X63353D01*
X57447Y378185D02*
X63353D01*
X66685Y419047D02*
Y424953D01*
X77315Y419047D02*
Y424953D01*
X66685D02*
X77315D01*
X66685Y419047D02*
X77315D01*
X54685Y417953D02*
X65315D01*
X54685Y412047D02*
X65315D01*
X54685D02*
Y417953D01*
X65315Y412047D02*
Y417953D01*
X114744Y435653D02*
X125374D01*
X114744Y429747D02*
X125374D01*
X114744D02*
Y435653D01*
X125374Y429747D02*
Y435653D01*
X105547Y417185D02*
Y427815D01*
X111453Y417185D02*
Y427815D01*
X105547Y417185D02*
X111453D01*
X105547Y427815D02*
X111453D01*
X104047Y376685D02*
X109953D01*
X104047Y387315D02*
X109953D01*
X104047Y376685D02*
Y387315D01*
X109953Y376685D02*
Y387315D01*
X182453Y413185D02*
Y423815D01*
X176547Y413185D02*
Y423815D01*
X182453D01*
X176547Y413185D02*
X182453D01*
X44348Y6848D02*
Y69053D01*
Y6848D02*
X106553D01*
Y69053D01*
X44348D02*
X106553D01*
X6848Y81848D02*
Y144053D01*
Y81848D02*
X69053D01*
Y144053D01*
X6848D02*
X69053D01*
X6848Y156848D02*
Y219053D01*
Y156848D02*
X69053D01*
Y219053D01*
X6848D02*
X69053D01*
X6848Y231848D02*
Y294053D01*
Y231848D02*
X69053D01*
Y294053D01*
X6848D02*
X69053D01*
X6848Y306848D02*
Y369053D01*
Y306848D02*
X69053D01*
Y369053D01*
X6848D02*
X69053D01*
X81848Y306848D02*
Y369053D01*
Y306848D02*
X144053D01*
Y369053D01*
X81848D02*
X144053D01*
X156848Y306848D02*
Y369053D01*
Y306848D02*
X219053D01*
Y369053D01*
X156848D02*
X219053D01*
X231848Y306848D02*
Y369053D01*
Y306848D02*
X294053D01*
Y369053D01*
X231848D02*
X294053D01*
X231848Y194348D02*
Y256553D01*
Y194348D02*
X294053D01*
Y256553D01*
X231848D02*
X294053D01*
X156848Y231848D02*
Y294053D01*
Y231848D02*
X219053D01*
Y294053D01*
X156848D02*
X219053D01*
X81848Y231848D02*
Y294053D01*
Y231848D02*
X144053D01*
Y294053D01*
X81848D02*
X144053D01*
X231848Y44348D02*
Y106553D01*
Y44348D02*
X294053D01*
Y106553D01*
X231848D02*
X294053D01*
X156848Y156848D02*
Y219053D01*
Y156848D02*
X219053D01*
Y219053D01*
X156848D02*
X219053D01*
X81848Y156848D02*
Y219053D01*
Y156848D02*
X144053D01*
Y219053D01*
X81848D02*
X144053D01*
X156848Y81848D02*
Y144053D01*
Y81848D02*
X219053D01*
Y144053D01*
X156848D02*
X219053D01*
X81848Y81848D02*
Y144053D01*
Y81848D02*
X144053D01*
Y144053D01*
X81848D02*
X144053D01*
X156848Y6848D02*
Y69053D01*
Y6848D02*
X219053D01*
Y69053D01*
X156848D02*
X219053D01*
M02*
