G04*
G04 #@! TF.GenerationSoftware,Altium Limited,Altium Designer,21.3.2 (30)*
G04*
G04 Layer_Color=8421504*
%FSLAX25Y25*%
%MOIN*%
G70*
G04*
G04 #@! TF.SameCoordinates,2B475E60-5533-4C64-9BAB-B6E77246D606*
G04*
G04*
G04 #@! TF.FilePolarity,Positive*
G04*
G01*
G75*
%ADD16R,0.03150X0.03543*%
%ADD17R,0.03543X0.03937*%
%ADD18R,0.07284X0.03937*%
%ADD19R,0.07284X0.12598*%
%ADD20R,0.03150X0.01968*%
%ADD21R,0.01968X0.03150*%
%ADD22R,0.03347X0.03740*%
G04:AMPARAMS|DCode=23|XSize=78.74mil|YSize=98.43mil|CornerRadius=19.68mil|HoleSize=0mil|Usage=FLASHONLY|Rotation=0.000|XOffset=0mil|YOffset=0mil|HoleType=Round|Shape=RoundedRectangle|*
%AMROUNDEDRECTD23*
21,1,0.07874,0.05906,0,0,0.0*
21,1,0.03937,0.09843,0,0,0.0*
1,1,0.03937,0.01968,-0.02953*
1,1,0.03937,-0.01968,-0.02953*
1,1,0.03937,-0.01968,0.02953*
1,1,0.03937,0.01968,0.02953*
%
%ADD23ROUNDEDRECTD23*%
%ADD24R,0.01968X0.08858*%
%ADD25O,0.08268X0.01181*%
%ADD26O,0.01181X0.08268*%
%ADD27R,0.03740X0.03347*%
G04:AMPARAMS|DCode=28|XSize=62.99mil|YSize=86.22mil|CornerRadius=15.75mil|HoleSize=0mil|Usage=FLASHONLY|Rotation=0.000|XOffset=0mil|YOffset=0mil|HoleType=Round|Shape=RoundedRectangle|*
%AMROUNDEDRECTD28*
21,1,0.06299,0.05472,0,0,0.0*
21,1,0.03150,0.08622,0,0,0.0*
1,1,0.03150,0.01575,-0.02736*
1,1,0.03150,-0.01575,-0.02736*
1,1,0.03150,-0.01575,0.02736*
1,1,0.03150,0.01575,0.02736*
%
%ADD28ROUNDEDRECTD28*%
%ADD29R,0.03937X0.03543*%
D16*
X57539Y400752D02*
D03*
X62461D02*
D03*
Y407248D02*
D03*
X57539D02*
D03*
D17*
X62657Y393000D02*
D03*
X57342D02*
D03*
X183343Y395000D02*
D03*
X188657D02*
D03*
X69342Y422000D02*
D03*
X74657D02*
D03*
X57342Y415000D02*
D03*
X62657D02*
D03*
D18*
X188500Y421055D02*
D03*
Y412000D02*
D03*
Y402945D02*
D03*
D19*
X213500Y412000D02*
D03*
D20*
X56437Y373400D02*
D03*
X131337D02*
D03*
X206437D02*
D03*
X281037D02*
D03*
X56437Y300000D02*
D03*
X131337D02*
D03*
X206437D02*
D03*
X281037Y261200D02*
D03*
X56437Y225300D02*
D03*
X131337D02*
D03*
X206437D02*
D03*
X281037Y112000D02*
D03*
X56437Y149500D02*
D03*
X131337D02*
D03*
X206437D02*
D03*
X48563Y373400D02*
D03*
X123463D02*
D03*
X198563D02*
D03*
X273163D02*
D03*
X48563Y300000D02*
D03*
X123463D02*
D03*
X198563D02*
D03*
X273163Y261200D02*
D03*
X48563Y225300D02*
D03*
X123463D02*
D03*
X198563D02*
D03*
X273163Y112000D02*
D03*
X48563Y149500D02*
D03*
X123463D02*
D03*
X198563D02*
D03*
D21*
X115000Y32963D02*
D03*
X149500Y40837D02*
D03*
X115000D02*
D03*
X149500Y32963D02*
D03*
D22*
X122559Y439700D02*
D03*
X117441D02*
D03*
X117500Y432700D02*
D03*
X122618D02*
D03*
D23*
X132980Y409611D02*
D03*
Y431068D02*
D03*
X168020D02*
D03*
Y409611D02*
D03*
D24*
X144201Y409237D02*
D03*
X147350D02*
D03*
X156799D02*
D03*
X153650D02*
D03*
X150500D02*
D03*
D25*
X74858Y413827D02*
D03*
Y411858D02*
D03*
Y409890D02*
D03*
Y407921D02*
D03*
Y405953D02*
D03*
Y403984D02*
D03*
Y402016D02*
D03*
Y400047D02*
D03*
Y398079D02*
D03*
Y396110D02*
D03*
Y394142D02*
D03*
Y392173D02*
D03*
X107142D02*
D03*
Y394142D02*
D03*
Y396110D02*
D03*
Y398079D02*
D03*
Y400047D02*
D03*
Y402016D02*
D03*
Y403984D02*
D03*
Y405953D02*
D03*
Y407921D02*
D03*
Y409890D02*
D03*
Y411858D02*
D03*
Y413827D02*
D03*
D26*
X80173Y386858D02*
D03*
X82142D02*
D03*
X84110D02*
D03*
X86079D02*
D03*
X88047D02*
D03*
X90016D02*
D03*
X91984D02*
D03*
X93953D02*
D03*
X95921D02*
D03*
X97890D02*
D03*
X99858D02*
D03*
X101827D02*
D03*
Y419142D02*
D03*
X99858D02*
D03*
X97890D02*
D03*
X95921D02*
D03*
X93953D02*
D03*
X91984D02*
D03*
X90016D02*
D03*
X88047D02*
D03*
X86079D02*
D03*
X84110D02*
D03*
X82142D02*
D03*
X80173D02*
D03*
D27*
X60400Y386059D02*
D03*
Y380941D02*
D03*
D28*
X23500Y380410D02*
D03*
Y416590D02*
D03*
D29*
X108500Y419842D02*
D03*
Y425157D02*
D03*
X107000Y379343D02*
D03*
Y384658D02*
D03*
X179500Y421158D02*
D03*
Y415842D02*
D03*
M02*
