M48
;Layer_Color=9474304
;FILE_FORMAT=2:5
INCH,TZ
;TYPE=PLATED
T1F00S00C0.01181
T2F00S00C0.01700
T3F00S00C0.03543
T4F00S00C0.05906
;TYPE=NON_PLATED
T5F00S00C0.03543
T6F00S00C0.15748
%
T01
X17700Y19100
X36700
X55700
X74700
X93700
X112700
X131700
X150700
X141200Y38100
X122200
X103200
X112700Y57100
X103200Y76100
X84200
X65200
X46200
X27200
X17700Y57100
X36700
X27200Y38100
X46200
X65200
X74700Y57100
Y95100
X55700
X36700
X17700
X27200Y114100
X36700Y133100
X17700
X27200Y152100
X65200
X84200
X103200
X93700Y133100
X74700
X65200Y114100
X112700Y95100
X131700
X150700
X141200Y114100
X150700Y133100
X131700
X112700
X141200Y152100
Y76100
X150700Y57100
X169700
X188700
X207700
X226700
X245700
X264700
X283700
X274200Y38100
X293200
X283700Y19100
X264700
X245700
X226700
X207700
X188700
X169700
X160200Y38100
Y76100
X179200
X198200
X217200
X236200
X226700Y95100
X207700
X188700
X169700
X160200Y114100
X169700Y133100
X188700
X207700
X226700
X236200Y114100
X255200
X264700Y95100
X274200Y76100
X293200
Y114100
Y152100
X274200
X255200
X236200
X217200
Y114100
X198200
X179200Y152100
X160200
X264700Y133100
X236200Y38100
X217200
X198200
X188700Y171100
X169700
X160200Y190100
X169700Y209100
X188700
X179200Y228100
X160200
X169700Y247100
X188700
X198200Y266100
X188700Y285100
X169700
X160200Y266100
Y304100
X179200
X198200
X217200
X236200
X255200
X274200
X293200
Y266100
X274200
X255200
X236200
X245700Y285100
X226700
Y247100
X245700
X264700
X274200Y228100
X293200
Y190100
X274200
X255200
X236200
X226700Y209100
X245700
X264700
Y171100
X245700
X226700
X198200Y190100
X217200Y228100
X236200
X264700Y285100
X150700
X141200Y266100
X150700Y247100
X141200Y228100
X150700Y209100
X141200Y190100
X150700Y171100
X112700
X93700
X84200Y190100
X65200
Y228100
X84200
X103200
X93700Y209100
X112700
Y247100
X93700
X84200Y266100
X65200
X27200
X36700Y285100
X17700
X27200Y304100
X46200
X65200
X103200
X122200
X141200
X112700Y285100
X93700
X103200Y266100
X36700Y247100
X17700
X27200Y228100
X36700Y209100
X17700
X27200Y190100
X36700Y171100
X17700
Y323100
X36700
Y361100
X17700
Y399100
X51700Y398700
X51600Y410800
X66700Y411000
X64900Y421200
X57600Y420400
X37800Y416000
X46200Y380100
X65700Y380500
X60600Y373300
X65200Y342100
X93700Y323100
X112700
X122200Y342100
X141200
X150700Y323100
Y361100
X112700
X112500Y378300
Y389500
X122200Y380100
X102600Y374800
X93700Y379500
X96100Y394000
X93700Y399100
X85000Y399600
X81400Y400760
X93700Y361100
X99900Y434400
X103200Y431600
X157000Y394400
X169700Y361100
X188700
X198200Y342100
X217200
X236200
X226700Y323100
X245700
X264700
X274200Y342100
X293200
Y380100
X274200
X255200
X236200
X217200
X226700Y399100
X245700
X264700
X283700
X293200Y418100
X274200
X255200
X236200
X198200
X204400Y402000
X226700Y361100
X245700
X264700
X188700Y323100
X169700
X160200Y342100
T02
X113000Y384500
X113400Y419300
X80000Y426500
X188500Y389500
T03
X10500Y434000
X20500
X32500
X42500
X52500
X62500
X72500
X82500
X198169Y433626
X208169
T04
X60451Y47951
X85451Y57951
X97951Y122951
X122951Y132951
X47951
X22951Y122951
X172951
X197951Y132951
Y57951
X172951Y47951
X247951Y85451
X272951Y95451
Y245451
X247951Y235451
X197951Y207951
X172951Y197951
Y272951
X197951Y282951
X122951
X97951Y272951
X47951Y282951
X22951Y272951
Y197951
X47951Y207951
X97951Y197951
X122951Y207951
Y357951
X97951Y347951
X47951Y357951
X22951Y347951
X172951
X197951Y357951
X247951Y347951
X272951Y357951
T05
X141839Y419768
X159161
T06
X75451Y37951
X37951Y112951
X112951
X187951
Y37951
X262951Y75451
Y225451
X187951Y262951
Y187951
X112951
X37951
Y262951
X112951
Y337951
X37951
X187951
X262951
M30
