G04*
G04 #@! TF.GenerationSoftware,Altium Limited,Altium Designer,21.3.2 (30)*
G04*
G04 Layer_Color=65535*
%FSLAX25Y25*%
%MOIN*%
G70*
G04*
G04 #@! TF.SameCoordinates,2B475E60-5533-4C64-9BAB-B6E77246D606*
G04*
G04*
G04 #@! TF.FilePolarity,Positive*
G04*
G01*
G75*
%ADD10C,0.00394*%
%ADD11C,0.00984*%
%ADD12C,0.02362*%
%ADD13C,0.00787*%
%ADD14C,0.00591*%
%ADD15C,0.01000*%
D10*
X54685Y410299D02*
D03*
D11*
X188992Y425189D02*
X188254Y425615D01*
Y424763D01*
X188992Y425189D01*
X75350Y416583D02*
X74612Y417009D01*
Y416156D01*
X75350Y416583D01*
X60943Y71415D02*
X60205Y71842D01*
Y70989D01*
X60943Y71415D01*
X23443Y146415D02*
X22705Y146842D01*
Y145989D01*
X23443Y146415D01*
Y221415D02*
X22705Y221842D01*
Y220989D01*
X23443Y221415D01*
Y296415D02*
X22705Y296842D01*
Y295989D01*
X23443Y296415D01*
Y371415D02*
X22705Y371842D01*
Y370989D01*
X23443Y371415D01*
X98443D02*
X97705Y371842D01*
Y370989D01*
X98443Y371415D01*
X173443D02*
X172705Y371842D01*
Y370989D01*
X173443Y371415D01*
X248443D02*
X247705Y371842D01*
Y370989D01*
X248443Y371415D01*
Y258915D02*
X247705Y259342D01*
Y258489D01*
X248443Y258915D01*
X173443Y296415D02*
X172705Y296842D01*
Y295989D01*
X173443Y296415D01*
X98443D02*
X97705Y296842D01*
Y295989D01*
X98443Y296415D01*
X248443Y108915D02*
X247705Y109342D01*
Y108489D01*
X248443Y108915D01*
X173443Y221415D02*
X172705Y221842D01*
Y220989D01*
X173443Y221415D01*
X98443D02*
X97705Y221842D01*
Y220989D01*
X98443Y221415D01*
X173443Y146415D02*
X172705Y146842D01*
Y145989D01*
X173443Y146415D01*
X98443D02*
X97705Y146842D01*
Y145989D01*
X98443Y146415D01*
X173443Y71415D02*
X172705Y71842D01*
Y70989D01*
X173443Y71415D01*
D12*
X85685Y409496D02*
X85240Y410420D01*
X84241Y410647D01*
X83440Y410008D01*
Y408984D01*
X84241Y408345D01*
X85240Y408573D01*
X85685Y409496D01*
D13*
X65118Y398095D02*
Y409905D01*
X54882Y398095D02*
X65118D01*
X55669Y409905D02*
X65118D01*
X54882Y409118D02*
X55669Y409905D01*
X54882Y398095D02*
Y409118D01*
X193323Y398811D02*
Y425189D01*
X208677Y398811D02*
Y425189D01*
X193323D02*
X208677D01*
X193323Y398811D02*
X208677D01*
X51571Y371900D02*
X53287D01*
Y374900D01*
X52500Y371900D02*
Y374900D01*
X51571D02*
X53287D01*
X126471D02*
X128187D01*
X127400Y371900D02*
Y374900D01*
X128187Y371900D02*
Y374900D01*
X126471Y371900D02*
X128187D01*
X201571Y374900D02*
X203287D01*
X202500Y371900D02*
Y374900D01*
X203287Y371900D02*
Y374900D01*
X201571Y371900D02*
X203287D01*
X276171Y374900D02*
X277887D01*
X277100Y371900D02*
Y374900D01*
X277887Y371900D02*
Y374900D01*
X276171Y371900D02*
X277887D01*
X51571Y301500D02*
X53287D01*
X52500Y298500D02*
Y301500D01*
X53287Y298500D02*
Y301500D01*
X51571Y298500D02*
X53287D01*
X126471Y301500D02*
X128187D01*
X127400Y298500D02*
Y301500D01*
X128187Y298500D02*
Y301500D01*
X126471Y298500D02*
X128187D01*
X201571Y301500D02*
X203287D01*
X202500Y298500D02*
Y301500D01*
X203287Y298500D02*
Y301500D01*
X201571Y298500D02*
X203287D01*
X276171Y262700D02*
X277887D01*
X277100Y259700D02*
Y262700D01*
X277887Y259700D02*
Y262700D01*
X276171Y259700D02*
X277887D01*
X51571Y223800D02*
X53287D01*
Y226800D01*
X52500Y223800D02*
Y226800D01*
X51571D02*
X53287D01*
X126471Y223800D02*
X128187D01*
Y226800D01*
X127400Y223800D02*
Y226800D01*
X126471D02*
X128187D01*
X201571D02*
X203287D01*
X202500Y223800D02*
Y226800D01*
X203287Y223800D02*
Y226800D01*
X201571Y223800D02*
X203287D01*
X276171Y110500D02*
X277887D01*
Y113500D01*
X277100Y110500D02*
Y113500D01*
X276171D02*
X277887D01*
X51571Y148000D02*
X53287D01*
Y151000D01*
X52500Y148000D02*
Y151000D01*
X51571D02*
X53287D01*
X126471Y148000D02*
X128187D01*
Y151000D01*
X127400Y148000D02*
Y151000D01*
X126471D02*
X128187D01*
X201571Y148000D02*
X203287D01*
Y151000D01*
X202500Y148000D02*
Y151000D01*
X201571D02*
X203287D01*
X116500Y36113D02*
Y37829D01*
X113500Y36900D02*
X116500D01*
X113500Y36113D02*
X116500D01*
X113500D02*
Y37829D01*
X151000Y35971D02*
Y37687D01*
X148000D02*
X151000D01*
X148000Y36900D02*
X151000D01*
X148000Y35971D02*
Y37687D01*
X213169Y428625D02*
Y438625D01*
X193169Y428625D02*
X213169D01*
X193169D02*
Y438625D01*
X213169D01*
X170000Y437268D02*
Y442768D01*
X131000D02*
X170000D01*
X131000Y437268D02*
Y442768D01*
X159000Y405768D02*
X163000D01*
X138000D02*
X142000D01*
X170000Y416268D02*
Y424768D01*
X131000Y416268D02*
Y424768D01*
X80567Y392567D02*
Y413433D01*
X101433Y392567D02*
Y413433D01*
X80567D02*
X101433D01*
X80567Y392567D02*
X101433D01*
X30500Y386000D02*
Y411000D01*
X16500D02*
X30500D01*
X16500Y386000D02*
Y411000D01*
Y386000D02*
X30500D01*
X5500Y429000D02*
X25500D01*
Y439000D01*
X5500D02*
X25500D01*
X5500Y429000D02*
Y439000D01*
X27500Y429000D02*
Y439000D01*
X87500Y429000D02*
Y439000D01*
X27500Y429000D02*
X87500D01*
X27500Y439000D02*
X87500D01*
X44742Y68660D02*
X106159D01*
Y7242D02*
Y68660D01*
X44742Y7242D02*
X106159D01*
X44742D02*
Y68660D01*
X7242Y143659D02*
X68659D01*
Y82242D02*
Y143659D01*
X7242Y82242D02*
X68659D01*
X7242D02*
Y143659D01*
Y218659D02*
X68659D01*
Y157242D02*
Y218659D01*
X7242Y157242D02*
X68659D01*
X7242D02*
Y218659D01*
Y293659D02*
X68659D01*
Y232242D02*
Y293659D01*
X7242Y232242D02*
X68659D01*
X7242D02*
Y293659D01*
Y368659D02*
X68659D01*
Y307242D02*
Y368659D01*
X7242Y307242D02*
X68659D01*
X7242D02*
Y368659D01*
X82242D02*
X143659D01*
Y307242D02*
Y368659D01*
X82242Y307242D02*
X143659D01*
X82242D02*
Y368659D01*
X157242D02*
X218659D01*
Y307242D02*
Y368659D01*
X157242Y307242D02*
X218659D01*
X157242D02*
Y368659D01*
X232242D02*
X293659D01*
Y307242D02*
Y368659D01*
X232242Y307242D02*
X293659D01*
X232242D02*
Y368659D01*
Y256159D02*
X293659D01*
Y194742D02*
Y256159D01*
X232242Y194742D02*
X293659D01*
X232242D02*
Y256159D01*
X157242Y293659D02*
X218659D01*
Y232242D02*
Y293659D01*
X157242Y232242D02*
X218659D01*
X157242D02*
Y293659D01*
X82242D02*
X143659D01*
Y232242D02*
Y293659D01*
X82242Y232242D02*
X143659D01*
X82242D02*
Y293659D01*
X232242Y106159D02*
X293659D01*
Y44742D02*
Y106159D01*
X232242Y44742D02*
X293659D01*
X232242D02*
Y106159D01*
X157242Y218659D02*
X218659D01*
Y157242D02*
Y218659D01*
X157242Y157242D02*
X218659D01*
X157242D02*
Y218659D01*
X82242D02*
X143659D01*
Y157242D02*
Y218659D01*
X82242Y157242D02*
X143659D01*
X82242D02*
Y218659D01*
X157242Y143659D02*
X218659D01*
Y82242D02*
Y143659D01*
X157242Y82242D02*
X218659D01*
X157242D02*
Y143659D01*
X82242D02*
X143659D01*
Y82242D02*
Y143659D01*
X82242Y82242D02*
X143659D01*
X82242D02*
Y143659D01*
X157242Y68660D02*
X218659D01*
Y7242D02*
Y68660D01*
X157242Y7242D02*
X218659D01*
X157242D02*
Y68660D01*
D14*
X60000Y390244D02*
Y395756D01*
X54488Y394575D02*
Y395756D01*
X65512D01*
Y394575D02*
Y395756D01*
Y390244D02*
Y391425D01*
X54488Y390244D02*
X65512D01*
X54488D02*
Y391425D01*
X120000Y436944D02*
Y442456D01*
X125000Y436944D02*
Y437700D01*
X115000Y436944D02*
X125000D01*
X115000D02*
Y437700D01*
Y441700D02*
Y442456D01*
X125000D01*
Y441700D02*
Y442456D01*
X180488Y392244D02*
Y393425D01*
Y392244D02*
X191512D01*
Y393425D01*
Y396575D02*
Y397756D01*
X180488D02*
X191512D01*
X180488Y396575D02*
Y397756D01*
X186000Y392244D02*
Y397756D01*
X62400Y378500D02*
X63156D01*
Y388500D01*
X62400D02*
X63156D01*
X57644D02*
X58400D01*
X57644Y378500D02*
Y388500D01*
Y378500D02*
X58400D01*
X57644Y383500D02*
X63156D01*
X66488Y419244D02*
Y420425D01*
Y419244D02*
X77512D01*
Y420425D01*
Y423575D02*
Y424756D01*
X66488D02*
X77512D01*
X66488Y423575D02*
Y424756D01*
X72000Y419244D02*
Y424756D01*
X60000Y412244D02*
Y417756D01*
X65512Y412244D02*
Y413425D01*
X54488Y412244D02*
X65512D01*
X54488D02*
Y413425D01*
Y416575D02*
Y417756D01*
X65512D01*
Y416575D02*
Y417756D01*
X125059Y434700D02*
Y435456D01*
X115059D02*
X125059D01*
X115059Y434700D02*
Y435456D01*
Y429944D02*
Y430700D01*
Y429944D02*
X125059D01*
Y430700D01*
X120059Y429944D02*
Y435456D01*
X105744Y422500D02*
X111256D01*
X110075Y428012D02*
X111256D01*
Y416988D02*
Y428012D01*
X110075Y416988D02*
X111256D01*
X105744D02*
X106925D01*
X105744D02*
Y428012D01*
X106925D01*
X108575Y376488D02*
X109756D01*
Y387512D01*
X108575D02*
X109756D01*
X104244D02*
X105425D01*
X104244Y376488D02*
Y387512D01*
Y376488D02*
X105425D01*
X104244Y382000D02*
X109756D01*
X176744Y418500D02*
X182256D01*
X176744Y412988D02*
X177925D01*
X176744D02*
Y424012D01*
X177925D01*
X181075D02*
X182256D01*
Y412988D02*
Y424012D01*
X181075Y412988D02*
X182256D01*
D15*
X216600Y437097D02*
Y433099D01*
X218599Y431099D01*
X220599Y433099D01*
Y437097D01*
X222598Y431099D02*
X224597D01*
X223598D01*
Y435098D01*
X222598D01*
X227596Y431099D02*
Y435098D01*
X230595D01*
X231595Y434098D01*
Y431099D01*
X234594Y430100D02*
X235594Y431099D01*
Y432099D01*
X234594D01*
Y431099D01*
X235594D01*
X234594Y430100D01*
X233594Y429100D01*
X243591Y436098D02*
X242592Y437097D01*
X240592D01*
X239593Y436098D01*
Y432099D01*
X240592Y431099D01*
X242592D01*
X243591Y432099D01*
Y434098D01*
X241592D01*
X245591Y431099D02*
Y437097D01*
X249589Y431099D01*
Y437097D01*
X251589D02*
Y431099D01*
X254588D01*
X255587Y432099D01*
Y436098D01*
X254588Y437097D01*
X251589D01*
X186900Y439599D02*
X184901D01*
X185900D01*
Y434601D01*
X184901Y433601D01*
X183901D01*
X182901Y434601D01*
X188899Y433601D02*
X190899D01*
X189899D01*
Y439599D01*
X188899Y438599D01*
X47067Y405349D02*
Y404766D01*
X48234Y403600D01*
X49400Y404766D01*
Y405349D01*
X48234Y403600D02*
Y401851D01*
X50566D02*
X51733D01*
X51149D01*
Y405349D01*
X50566Y404766D01*
X67751Y387249D02*
Y383501D01*
X68501Y382751D01*
X70000D01*
X70750Y383501D01*
Y387249D01*
X75249Y382751D02*
X72250D01*
X75249Y385750D01*
Y386500D01*
X74499Y387249D01*
X73000D01*
X72250Y386500D01*
X211901Y401399D02*
Y396401D01*
X212901Y395401D01*
X214900D01*
X215900Y396401D01*
Y401399D01*
X217899Y395401D02*
X219899D01*
X218899D01*
Y401399D01*
X217899Y400399D01*
X160133Y78267D02*
X159549Y78850D01*
X158383D01*
X157800Y78267D01*
Y77683D01*
X158383Y77100D01*
X159549D01*
X160133Y76517D01*
Y75934D01*
X159549Y75351D01*
X158383D01*
X157800Y75934D01*
X161299Y78850D02*
Y75351D01*
X162465Y76517D01*
X163631Y75351D01*
Y78850D01*
X164798Y75351D02*
X165964D01*
X165381D01*
Y78850D01*
X164798Y78267D01*
X167713Y78850D02*
X170046D01*
Y78267D01*
X167713Y75934D01*
Y75351D01*
X47533Y78267D02*
X46949Y78850D01*
X45783D01*
X45200Y78267D01*
Y77683D01*
X45783Y77100D01*
X46949D01*
X47533Y76517D01*
Y75934D01*
X46949Y75351D01*
X45783D01*
X45200Y75934D01*
X48699Y78850D02*
Y75351D01*
X49865Y76517D01*
X51032Y75351D01*
Y78850D01*
X52198Y75351D02*
X53364D01*
X52781D01*
Y78850D01*
X52198Y78267D01*
X57446Y78850D02*
X56280Y78267D01*
X55114Y77100D01*
Y75934D01*
X55697Y75351D01*
X56863D01*
X57446Y75934D01*
Y76517D01*
X56863Y77100D01*
X55114D01*
X160133Y153267D02*
X159549Y153850D01*
X158383D01*
X157800Y153267D01*
Y152683D01*
X158383Y152100D01*
X159549D01*
X160133Y151517D01*
Y150934D01*
X159549Y150351D01*
X158383D01*
X157800Y150934D01*
X161299Y153850D02*
Y150351D01*
X162465Y151517D01*
X163631Y150351D01*
Y153850D01*
X164798Y150351D02*
X165964D01*
X165381D01*
Y153850D01*
X164798Y153267D01*
X170046Y153850D02*
X167713D01*
Y152100D01*
X168880Y152683D01*
X169463D01*
X170046Y152100D01*
Y150934D01*
X169463Y150351D01*
X168297D01*
X167713Y150934D01*
X85133Y153267D02*
X84549Y153850D01*
X83383D01*
X82800Y153267D01*
Y152683D01*
X83383Y152100D01*
X84549D01*
X85133Y151517D01*
Y150934D01*
X84549Y150351D01*
X83383D01*
X82800Y150934D01*
X86299Y153850D02*
Y150351D01*
X87465Y151517D01*
X88631Y150351D01*
Y153850D01*
X89798Y150351D02*
X90964D01*
X90381D01*
Y153850D01*
X89798Y153267D01*
X94463Y150351D02*
Y153850D01*
X92713Y152100D01*
X95046D01*
X10133Y153267D02*
X9549Y153850D01*
X8383D01*
X7800Y153267D01*
Y152683D01*
X8383Y152100D01*
X9549D01*
X10133Y151517D01*
Y150934D01*
X9549Y150351D01*
X8383D01*
X7800Y150934D01*
X11299Y153850D02*
Y150351D01*
X12465Y151517D01*
X13632Y150351D01*
Y153850D01*
X14798Y150351D02*
X15964D01*
X15381D01*
Y153850D01*
X14798Y153267D01*
X17714D02*
X18297Y153850D01*
X19463D01*
X20046Y153267D01*
Y152683D01*
X19463Y152100D01*
X18880D01*
X19463D01*
X20046Y151517D01*
Y150934D01*
X19463Y150351D01*
X18297D01*
X17714Y150934D01*
X235133Y115767D02*
X234549Y116350D01*
X233383D01*
X232800Y115767D01*
Y115183D01*
X233383Y114600D01*
X234549D01*
X235133Y114017D01*
Y113434D01*
X234549Y112851D01*
X233383D01*
X232800Y113434D01*
X236299Y116350D02*
Y112851D01*
X237465Y114017D01*
X238631Y112851D01*
Y116350D01*
X239798Y112851D02*
X240964D01*
X240381D01*
Y116350D01*
X239798Y115767D01*
X245046Y112851D02*
X242713D01*
X245046Y115183D01*
Y115767D01*
X244463Y116350D01*
X243297D01*
X242713Y115767D01*
X160133Y228267D02*
X159549Y228850D01*
X158383D01*
X157800Y228267D01*
Y227683D01*
X158383Y227100D01*
X159549D01*
X160133Y226517D01*
Y225934D01*
X159549Y225351D01*
X158383D01*
X157800Y225934D01*
X161299Y228850D02*
Y225351D01*
X162465Y226517D01*
X163631Y225351D01*
Y228850D01*
X164798Y225351D02*
X165964D01*
X165381D01*
Y228850D01*
X164798Y228267D01*
X167713Y225351D02*
X168880D01*
X168297D01*
Y228850D01*
X167713Y228267D01*
X85133D02*
X84549Y228850D01*
X83383D01*
X82800Y228267D01*
Y227683D01*
X83383Y227100D01*
X84549D01*
X85133Y226517D01*
Y225934D01*
X84549Y225351D01*
X83383D01*
X82800Y225934D01*
X86299Y228850D02*
Y225351D01*
X87465Y226517D01*
X88631Y225351D01*
Y228850D01*
X89798Y225351D02*
X90964D01*
X90381D01*
Y228850D01*
X89798Y228267D01*
X92713D02*
X93297Y228850D01*
X94463D01*
X95046Y228267D01*
Y225934D01*
X94463Y225351D01*
X93297D01*
X92713Y225934D01*
Y228267D01*
X10133D02*
X9549Y228850D01*
X8383D01*
X7800Y228267D01*
Y227683D01*
X8383Y227100D01*
X9549D01*
X10133Y226517D01*
Y225934D01*
X9549Y225351D01*
X8383D01*
X7800Y225934D01*
X11299Y228850D02*
Y225351D01*
X12465Y226517D01*
X13632Y225351D01*
Y228850D01*
X14798Y225934D02*
X15381Y225351D01*
X16547D01*
X17130Y225934D01*
Y228267D01*
X16547Y228850D01*
X15381D01*
X14798Y228267D01*
Y227683D01*
X15381Y227100D01*
X17130D01*
X235133Y265767D02*
X234549Y266350D01*
X233383D01*
X232800Y265767D01*
Y265183D01*
X233383Y264600D01*
X234549D01*
X235133Y264017D01*
Y263434D01*
X234549Y262851D01*
X233383D01*
X232800Y263434D01*
X236299Y266350D02*
Y262851D01*
X237465Y264017D01*
X238631Y262851D01*
Y266350D01*
X239798Y265767D02*
X240381Y266350D01*
X241547D01*
X242130Y265767D01*
Y265183D01*
X241547Y264600D01*
X242130Y264017D01*
Y263434D01*
X241547Y262851D01*
X240381D01*
X239798Y263434D01*
Y264017D01*
X240381Y264600D01*
X239798Y265183D01*
Y265767D01*
X240381Y264600D02*
X241547D01*
X160133Y303267D02*
X159549Y303850D01*
X158383D01*
X157800Y303267D01*
Y302683D01*
X158383Y302100D01*
X159549D01*
X160133Y301517D01*
Y300934D01*
X159549Y300351D01*
X158383D01*
X157800Y300934D01*
X161299Y303850D02*
Y300351D01*
X162465Y301517D01*
X163631Y300351D01*
Y303850D01*
X164798D02*
X167130D01*
Y303267D01*
X164798Y300934D01*
Y300351D01*
X85133Y303267D02*
X84549Y303850D01*
X83383D01*
X82800Y303267D01*
Y302683D01*
X83383Y302100D01*
X84549D01*
X85133Y301517D01*
Y300934D01*
X84549Y300351D01*
X83383D01*
X82800Y300934D01*
X86299Y303850D02*
Y300351D01*
X87465Y301517D01*
X88631Y300351D01*
Y303850D01*
X92130D02*
X90964Y303267D01*
X89798Y302100D01*
Y300934D01*
X90381Y300351D01*
X91547D01*
X92130Y300934D01*
Y301517D01*
X91547Y302100D01*
X89798D01*
X10133Y303267D02*
X9549Y303850D01*
X8383D01*
X7800Y303267D01*
Y302683D01*
X8383Y302100D01*
X9549D01*
X10133Y301517D01*
Y300934D01*
X9549Y300351D01*
X8383D01*
X7800Y300934D01*
X11299Y303850D02*
Y300351D01*
X12465Y301517D01*
X13632Y300351D01*
Y303850D01*
X17130D02*
X14798D01*
Y302100D01*
X15964Y302683D01*
X16547D01*
X17130Y302100D01*
Y300934D01*
X16547Y300351D01*
X15381D01*
X14798Y300934D01*
X235133Y378267D02*
X234549Y378850D01*
X233383D01*
X232800Y378267D01*
Y377683D01*
X233383Y377100D01*
X234549D01*
X235133Y376517D01*
Y375934D01*
X234549Y375351D01*
X233383D01*
X232800Y375934D01*
X236299Y378850D02*
Y375351D01*
X237465Y376517D01*
X238631Y375351D01*
Y378850D01*
X241547Y375351D02*
Y378850D01*
X239798Y377100D01*
X242130D01*
X160133Y378267D02*
X159549Y378850D01*
X158383D01*
X157800Y378267D01*
Y377683D01*
X158383Y377100D01*
X159549D01*
X160133Y376517D01*
Y375934D01*
X159549Y375351D01*
X158383D01*
X157800Y375934D01*
X161299Y378850D02*
Y375351D01*
X162465Y376517D01*
X163631Y375351D01*
Y378850D01*
X164798Y378267D02*
X165381Y378850D01*
X166547D01*
X167130Y378267D01*
Y377683D01*
X166547Y377100D01*
X165964D01*
X166547D01*
X167130Y376517D01*
Y375934D01*
X166547Y375351D01*
X165381D01*
X164798Y375934D01*
X85133Y378267D02*
X84549Y378850D01*
X83383D01*
X82800Y378267D01*
Y377683D01*
X83383Y377100D01*
X84549D01*
X85133Y376517D01*
Y375934D01*
X84549Y375351D01*
X83383D01*
X82800Y375934D01*
X86299Y378850D02*
Y375351D01*
X87465Y376517D01*
X88631Y375351D01*
Y378850D01*
X92130Y375351D02*
X89798D01*
X92130Y377683D01*
Y378267D01*
X91547Y378850D01*
X90381D01*
X89798Y378267D01*
X10133D02*
X9549Y378850D01*
X8383D01*
X7800Y378267D01*
Y377683D01*
X8383Y377100D01*
X9549D01*
X10133Y376517D01*
Y375934D01*
X9549Y375351D01*
X8383D01*
X7800Y375934D01*
X11299Y378850D02*
Y375351D01*
X12465Y376517D01*
X13632Y375351D01*
Y378850D01*
X14798Y375351D02*
X15964D01*
X15381D01*
Y378850D01*
X14798Y378267D01*
X14000Y418666D02*
X13417Y419249D01*
X12251D01*
X11667Y418666D01*
Y418083D01*
X12251Y417500D01*
X13417D01*
X14000Y416917D01*
Y416334D01*
X13417Y415751D01*
X12251D01*
X11667Y416334D01*
X15166Y415751D02*
X16333D01*
X15749D01*
Y419249D01*
X15166Y418666D01*
X49684Y379151D02*
Y382649D01*
X51434D01*
X52017Y382066D01*
Y380900D01*
X51434Y380317D01*
X49684D01*
X50851D02*
X52017Y379151D01*
X53183Y382066D02*
X53766Y382649D01*
X54933D01*
X55516Y382066D01*
Y381483D01*
X54933Y380900D01*
X54349D01*
X54933D01*
X55516Y380317D01*
Y379734D01*
X54933Y379151D01*
X53766D01*
X53183Y379734D01*
X118467Y418551D02*
Y422049D01*
X120217D01*
X120800Y421466D01*
Y420300D01*
X120217Y419717D01*
X118467D01*
X119634D02*
X120800Y418551D01*
X124299D02*
X121966D01*
X124299Y420883D01*
Y421466D01*
X123716Y422049D01*
X122549D01*
X121966Y421466D01*
X119634Y424251D02*
Y427749D01*
X121383D01*
X121966Y427166D01*
Y426000D01*
X121383Y425417D01*
X119634D01*
X120800D02*
X121966Y424251D01*
X123133D02*
X124299D01*
X123716D01*
Y427749D01*
X123133Y427166D01*
X7917Y426749D02*
X6751D01*
X7334D01*
Y423834D01*
X6751Y423251D01*
X6167D01*
X5584Y423834D01*
X10833Y423251D02*
Y426749D01*
X9083Y425000D01*
X11416D01*
X30417Y426749D02*
X29251D01*
X29834D01*
Y423834D01*
X29251Y423251D01*
X28667D01*
X28084Y423834D01*
X31583Y426166D02*
X32166Y426749D01*
X33333D01*
X33916Y426166D01*
Y425583D01*
X33333Y425000D01*
X32749D01*
X33333D01*
X33916Y424417D01*
Y423834D01*
X33333Y423251D01*
X32166D01*
X31583Y423834D01*
X168800Y400499D02*
X166801D01*
X167801D01*
Y395501D01*
X166801Y394501D01*
X165801D01*
X164802Y395501D01*
X174798Y394501D02*
X170800D01*
X174798Y398500D01*
Y399499D01*
X173799Y400499D01*
X171799D01*
X170800Y399499D01*
X145426Y28949D02*
Y25451D01*
X147176D01*
X147759Y26034D01*
Y28366D01*
X147176Y28949D01*
X145426D01*
X148925Y25451D02*
X150092D01*
X149508D01*
Y28949D01*
X148925Y28366D01*
X151841Y28949D02*
X154174D01*
Y28366D01*
X151841Y26034D01*
Y25451D01*
X111526Y28949D02*
Y25451D01*
X113276D01*
X113859Y26034D01*
Y28366D01*
X113276Y28949D01*
X111526D01*
X115025Y25451D02*
X116192D01*
X115608D01*
Y28949D01*
X115025Y28366D01*
X120274Y28949D02*
X119107Y28366D01*
X117941Y27200D01*
Y26034D01*
X118524Y25451D01*
X119690D01*
X120274Y26034D01*
Y26617D01*
X119690Y27200D01*
X117941D01*
X185726Y151149D02*
Y147651D01*
X187476D01*
X188059Y148234D01*
Y150566D01*
X187476Y151149D01*
X185726D01*
X189225Y147651D02*
X190392D01*
X189808D01*
Y151149D01*
X189225Y150566D01*
X194474Y151149D02*
X192141D01*
Y149400D01*
X193307Y149983D01*
X193890D01*
X194474Y149400D01*
Y148234D01*
X193890Y147651D01*
X192724D01*
X192141Y148234D01*
X111126Y151249D02*
Y147751D01*
X112876D01*
X113459Y148334D01*
Y150666D01*
X112876Y151249D01*
X111126D01*
X114625Y147751D02*
X115792D01*
X115208D01*
Y151249D01*
X114625Y150666D01*
X119290Y147751D02*
Y151249D01*
X117541Y149500D01*
X119874D01*
X35189Y151249D02*
Y147751D01*
X36939D01*
X37522Y148334D01*
Y150666D01*
X36939Y151249D01*
X35189D01*
X38688Y147751D02*
X39855D01*
X39271D01*
Y151249D01*
X38688Y150666D01*
X41604D02*
X42187Y151249D01*
X43353D01*
X43937Y150666D01*
Y150083D01*
X43353Y149500D01*
X42770D01*
X43353D01*
X43937Y148917D01*
Y148334D01*
X43353Y147751D01*
X42187D01*
X41604Y148334D01*
X259826Y114149D02*
Y110651D01*
X261576D01*
X262159Y111234D01*
Y113566D01*
X261576Y114149D01*
X259826D01*
X263325Y110651D02*
X264492D01*
X263908D01*
Y114149D01*
X263325Y113566D01*
X268574Y110651D02*
X266241D01*
X268574Y112983D01*
Y113566D01*
X267990Y114149D01*
X266824D01*
X266241Y113566D01*
X185710Y227049D02*
Y223551D01*
X187459D01*
X188042Y224134D01*
Y226466D01*
X187459Y227049D01*
X185710D01*
X189208Y223551D02*
X190375D01*
X189792D01*
Y227049D01*
X189208Y226466D01*
X192124Y223551D02*
X193290D01*
X192707D01*
Y227049D01*
X192124Y226466D01*
X109626Y227249D02*
Y223751D01*
X111376D01*
X111959Y224334D01*
Y226666D01*
X111376Y227249D01*
X109626D01*
X113125Y223751D02*
X114292D01*
X113708D01*
Y227249D01*
X113125Y226666D01*
X116041D02*
X116624Y227249D01*
X117790D01*
X118374Y226666D01*
Y224334D01*
X117790Y223751D01*
X116624D01*
X116041Y224334D01*
Y226666D01*
X37584Y227049D02*
Y223551D01*
X39334D01*
X39917Y224134D01*
Y226466D01*
X39334Y227049D01*
X37584D01*
X41083Y224134D02*
X41666Y223551D01*
X42833D01*
X43416Y224134D01*
Y226466D01*
X42833Y227049D01*
X41666D01*
X41083Y226466D01*
Y225883D01*
X41666Y225300D01*
X43416D01*
X262984Y263449D02*
Y259951D01*
X264734D01*
X265317Y260534D01*
Y262866D01*
X264734Y263449D01*
X262984D01*
X266483Y262866D02*
X267066Y263449D01*
X268233D01*
X268816Y262866D01*
Y262283D01*
X268233Y261700D01*
X268816Y261117D01*
Y260534D01*
X268233Y259951D01*
X267066D01*
X266483Y260534D01*
Y261117D01*
X267066Y261700D01*
X266483Y262283D01*
Y262866D01*
X267066Y261700D02*
X268233D01*
X188584Y301949D02*
Y298451D01*
X190334D01*
X190917Y299034D01*
Y301366D01*
X190334Y301949D01*
X188584D01*
X192083D02*
X194416D01*
Y301366D01*
X192083Y299034D01*
Y298451D01*
X113684Y301749D02*
Y298251D01*
X115434D01*
X116017Y298834D01*
Y301166D01*
X115434Y301749D01*
X113684D01*
X119516D02*
X118349Y301166D01*
X117183Y300000D01*
Y298834D01*
X117766Y298251D01*
X118933D01*
X119516Y298834D01*
Y299417D01*
X118933Y300000D01*
X117183D01*
X38947Y301849D02*
Y298351D01*
X40697D01*
X41280Y298934D01*
Y301266D01*
X40697Y301849D01*
X38947D01*
X44779D02*
X42446D01*
Y300100D01*
X43612Y300683D01*
X44196D01*
X44779Y300100D01*
Y298934D01*
X44196Y298351D01*
X43029D01*
X42446Y298934D01*
X262584Y375249D02*
Y371751D01*
X264334D01*
X264917Y372334D01*
Y374666D01*
X264334Y375249D01*
X262584D01*
X267833Y371751D02*
Y375249D01*
X266083Y373500D01*
X268416D01*
X188084Y375249D02*
Y371751D01*
X189834D01*
X190417Y372334D01*
Y374666D01*
X189834Y375249D01*
X188084D01*
X191583Y374666D02*
X192166Y375249D01*
X193333D01*
X193916Y374666D01*
Y374083D01*
X193333Y373500D01*
X192749D01*
X193333D01*
X193916Y372917D01*
Y372334D01*
X193333Y371751D01*
X192166D01*
X191583Y372334D01*
X113084Y375249D02*
Y371751D01*
X114834D01*
X115417Y372334D01*
Y374666D01*
X114834Y375249D01*
X113084D01*
X118916Y371751D02*
X116583D01*
X118916Y374083D01*
Y374666D01*
X118333Y375249D01*
X117166D01*
X116583Y374666D01*
X39167Y375249D02*
Y371751D01*
X40917D01*
X41500Y372334D01*
Y374666D01*
X40917Y375249D01*
X39167D01*
X42666Y371751D02*
X43833D01*
X43249D01*
Y375249D01*
X42666Y374666D01*
X60917Y423166D02*
X60334Y423749D01*
X59167D01*
X58584Y423166D01*
Y420834D01*
X59167Y420251D01*
X60334D01*
X60917Y420834D01*
X62083Y423749D02*
X64416D01*
Y423166D01*
X62083Y420834D01*
Y420251D01*
X107917Y433166D02*
X107334Y433749D01*
X106167D01*
X105584Y433166D01*
Y430834D01*
X106167Y430251D01*
X107334D01*
X107917Y430834D01*
X111416Y433749D02*
X110249Y433166D01*
X109083Y432000D01*
Y430834D01*
X109666Y430251D01*
X110833D01*
X111416Y430834D01*
Y431417D01*
X110833Y432000D01*
X109083D01*
X106817Y374066D02*
X106234Y374649D01*
X105067D01*
X104484Y374066D01*
Y371734D01*
X105067Y371151D01*
X106234D01*
X106817Y371734D01*
X110316Y374649D02*
X107983D01*
Y372900D01*
X109149Y373483D01*
X109733D01*
X110316Y372900D01*
Y371734D01*
X109733Y371151D01*
X108566D01*
X107983Y371734D01*
X48417Y394166D02*
X47834Y394749D01*
X46667D01*
X46084Y394166D01*
Y391834D01*
X46667Y391251D01*
X47834D01*
X48417Y391834D01*
X51333Y391251D02*
Y394749D01*
X49583Y393000D01*
X51916D01*
X48417Y416166D02*
X47834Y416749D01*
X46667D01*
X46084Y416166D01*
Y413834D01*
X46667Y413251D01*
X47834D01*
X48417Y413834D01*
X49583Y416166D02*
X50166Y416749D01*
X51333D01*
X51916Y416166D01*
Y415583D01*
X51333Y415000D01*
X50749D01*
X51333D01*
X51916Y414417D01*
Y413834D01*
X51333Y413251D01*
X50166D01*
X49583Y413834D01*
X182517Y389666D02*
X181934Y390249D01*
X180767D01*
X180184Y389666D01*
Y387334D01*
X180767Y386751D01*
X181934D01*
X182517Y387334D01*
X186016Y386751D02*
X183683D01*
X186016Y389083D01*
Y389666D01*
X185433Y390249D01*
X184266D01*
X183683Y389666D01*
X179500Y429166D02*
X178917Y429749D01*
X177751D01*
X177167Y429166D01*
Y426834D01*
X177751Y426251D01*
X178917D01*
X179500Y426834D01*
X180666Y426251D02*
X181833D01*
X181249D01*
Y429749D01*
X180666Y429166D01*
M02*
